<svg id="Layer_1" data-name="Layer 1" xmlns="http://www.w3.org/2000/svg" width="676" height="676" viewBox="0 0 676 676"><defs><style>.cls-1{fill:#009afe;}.cls-2{fill:#fdfdfe;}.cls-3{fill:none;}</style></defs><title>usa-today-logo</title><circle class="cls-1" cx="338" cy="338" r="319"/><path class="cls-2" d="M215.08,437.2c-.24-9.64,1.44-18.89,6.07-27.43,8.78-16.23,22.74-24.74,40.85-26.69,11.44-1.23,22.69-.19,33.12,5,18.2,9.07,27.32,24.16,28.52,44.26.08,1.39.11,2.77.17,4.16-.78,11-4.21,21-11.08,29.66-8.36,10.59-19.49,16.37-32.63,18.42-13.81,2.17-27.24.82-39.55-6.17C224.66,469.39,216.84,455.1,215.08,437.2Zm79.46-3c-.07-1.39-.1-2.77-.2-4.16-.95-12.23-9.93-21.51-21.91-22.64-13.25-1.25-23.62,5.49-27.13,17.62a33.65,33.65,0,0,0-.85,13.75c1.32,9.94,6.24,17.32,16.09,20.62C275.34,464.38,294.75,456.83,294.54,434.22Z" transform="translate(-37 -37)"/><path class="cls-2" d="M333.07,436.51c0-16.17.15-32.34,0-48.51,0-2.87.69-3.67,3.6-3.62,12.59.19,25.19-.18,37.77.23,13.72.45,26.61,4,37,13.59a41.74,41.74,0,0,1,12.65,23.57,87.91,87.91,0,0,1,1.43,14.73c-.83,4.62-1.11,9.31-2.52,13.84-5.73,18.37-19.23,27.45-37.17,31.22A73.11,73.11,0,0,1,370.71,483c-11.44,0-22.88-.08-34.32.06-2.56,0-3.3-.6-3.28-3.23C333.21,465.39,333.1,451,333.07,436.51Zm29.26-2.68c0,8,.1,15.94-.06,23.9,0,2.51.78,3.13,3.15,3a91.88,91.88,0,0,0,10.35-.65c10.42-1.52,17.45-7.81,19.62-17.8a38.81,38.81,0,0,0,.8-11c-.94-13-7.56-20.92-19.38-23.12a79.11,79.11,0,0,0-11.72-.89c-2.41-.09-2.83.85-2.8,3C362.4,418.13,362.33,426,362.33,433.83Z" transform="translate(-37 -37)"/><path class="cls-2" d="M441.45,436.86c1.68-4.18,3.45-8.34,5.05-12.56,3.64-9.62,7.21-19.27,10.79-28.91,1-2.78,2.13-5.54,2.91-8.39.51-1.88,1.38-2.6,3.34-2.58,8.9.07,17.81.1,26.72,0,2.07,0,2.66.93,3.28,2.62q9.29,25.16,18.73,50.25a4.08,4.08,0,0,0,.58.82c2.63,7.3,5.23,14.63,7.92,21.92q3.76,10.23,7.72,20.4c.74,1.91.57,2.66-1.72,2.63q-12.32-.14-24.63,0a2.6,2.6,0,0,1-2.94-2.15c-1-3.2-2.12-6.35-3.12-9.54-.45-1.45-1-2.29-2.83-2.28-11.1.1-22.2.07-33.3,0a2.36,2.36,0,0,0-2.66,2c-1,3.32-2.17,6.58-3.17,9.89-.37,1.24-.83,2-2.32,2-8.89,0-17.77,0-27,0C430.4,467.41,435.92,452.13,441.45,436.86Zm34.91-28.39c-.45,2.13-.87,4.27-1.35,6.4-2.12,9.33-5.5,18.29-8.28,27.42-1.42,4.64-1.48,4.62,3.2,4.63h10.38c7.86,0,7.81,0,5.54-7.35C482.66,429.29,478.79,419.2,476.36,408.47Z" transform="translate(-37 -37)"/><path class="cls-2" d="M542,436.51c-6.47-12.09-13.58-23.81-20.56-35.6-3.11-5.27-6.1-10.61-9.44-16.45,10.42,0,20.21,0,30,0,1.14,0,1.62.66,2.06,1.52,5.87,11.58,13,22.52,18,34.52.83,2,1.39,4,2.26,6.56,4.85-15,13.45-27.46,20.2-40.88a2.84,2.84,0,0,1,2.95-1.75c9.25.08,18.5,0,27.77,0,.35,1.57-.73,2.48-1.32,3.51q-12.84,22.6-25.76,45.16c-.63,1.1-1.14,2.26-1.71,3.38-2.11,3.57-4.18,7.15-6.34,10.69a6.6,6.6,0,0,0-.59,3.69c0,9.69-.08,19.39,0,29.09,0,2.39-.57,3.14-3,3.1q-12.29-.24-24.58,0c-2.5.05-3.06-.76-3-3.12.13-8.66-.13-17.32.13-26a17.08,17.08,0,0,0-2.92-10.71C544.69,441.09,543.41,438.77,542,436.51Z" transform="translate(-37 -37)"/><path class="cls-2" d="M160.94,436.51c0-8.67,0-17.34.16-26,0-2-.66-2.53-2.58-2.5-7.05.1-14.1,0-21.15.08-2.11,0-2.79-.53-2.74-2.7.15-6,.14-12,0-18,0-2.16.45-3,2.82-3q37.44.12,74.89,0c2.31,0,2.92.7,2.87,2.93q-.21,9,0,18c.05,2.13-.57,2.77-2.72,2.74-7.05-.13-14.1,0-21.15-.09-1.91,0-2.6.48-2.57,2.5.13,8.66.12,17.33.15,26,0,14.31-.15,28.62,0,42.93,0,2.82-.61,3.74-3.57,3.64-7.15-.23-14.31-.17-21.46,0-2.33.05-2.86-.73-2.85-2.93C161.06,465.59,161,451.05,160.94,436.51Z" transform="translate(-37 -37)"/><path class="cls-2" d="M136,302.56V272.71c.34-6.25.34-6.25,6.77-6.25,6.2,0,12.41.17,18.6-.07,3.11-.12,4.47.71,3.92,3.91a7.72,7.72,0,0,0,.1,1.72v18c0,12.81-.15,25.62,0,38.42.06,4.51.85,9.07,5,12,9,6.33,22,1,23.29-9.95,1.6-13.44.5-27,.58-40.45V272c.31-5.56.31-5.56,6.1-5.56,7.25,0,14.5,0,21.75,0,1.11,0,2.68-.63,2.93,1.37v22.91c-.57,15.49.62,31-.7,46.5-3,15-12.51,23.74-26.78,27.73a68.41,68.41,0,0,1-34.25.64c-17.27-4-26.8-15.89-27.18-33.64C135.91,322.18,136,312.37,136,302.56Z" transform="translate(-37 -37)"/><path class="cls-2" d="M379.47,274.15a93.21,93.21,0,0,0,5,13.14A141.19,141.19,0,0,0,390.6,304l11.11,30.15c.56,1.51,1.12,3,1.69,4.5,3.19,8.66,6.38,17.32,9.72,26.37-9.6,0-18.81,0-28,0-1.43,0-1.67-.89-2-1.89-1.06-3.16-2.23-6.3-3.17-9.5-.53-1.82-1.34-2.58-3.36-2.56-10.86.1-21.73.08-32.6,0-1.64,0-2.45.48-2.93,2.06-.9,2.95-2.07,5.83-3,8.78-.55,1.8-1.44,2.47-3.41,2.44q-11.44-.21-22.89,0c-2.65.06-3.11-.52-2.14-3,5.18-13.46,10.2-27,15.28-40.49.36-1,.65-2,1-3l13-34.74a108.11,108.11,0,0,0,5.49-14.59c.7-1.65,1.87-2.17,3.72-2.14,8.39.12,16.78.16,25.17,0,2.68-.05,4,.74,4.46,3.39A21.89,21.89,0,0,0,379.47,274.15ZM349.3,328.8h22.58c-3.63-13-8.74-25.37-11.32-38.57C358,303.44,352.84,315.79,349.3,328.8Z" transform="translate(-37 -37)"/><path class="cls-2" d="M251.35,268.58c6.28-2.21,12.64-4,19.36-4.11a61.69,61.69,0,0,1,26.39,5.38c.77.48,1.56.94,2.33,1.44,6.25,4,6.25,4,2.63,10.18a1.14,1.14,0,0,0-.08.33c-2.45,3.49-5,6.92-7.31,10.49-1.2,1.84-1.92,2.28-3.82.56a25,25,0,0,0-20.48-6.34c-4.09.48-6.65,2.41-7.22,5.39-.63,3.25,1,5.87,4.88,7.89,3.09,1.6,6.48,2.39,9.77,3.46,9.61,3.16,19,6.7,25.27,15.34,11.22,22.64-1.8,45.86-27.35,48.39-15,1.48-29-1.41-41.33-10.48-4.37-3.2-4.34-3.58-1.15-7.81,2.66-3.52,5.24-7.12,7.85-10.68,3-3.51,3.06-3.52,6.56-.36A31.14,31.14,0,0,0,258.27,344c4.76,1.66,9.65,2.32,14.61.86,3.23-.95,5.48-3,6.06-6.41a8,8,0,0,0-3.76-8.65,29.53,29.53,0,0,0-6.91-3.14c-5.12-1.73-10.39-3.07-15.31-5.41-7.84-3.73-14.35-8.73-17-17.51-1.29-4.28-.71-8.66-.74-13,1.45-6.57,4.18-12.44,9.4-16.9C246.78,272,249.1,270.33,251.35,268.58Z" transform="translate(-37 -37)"/><rect class="cls-3" width="676" height="676"/></svg>